HIERARCHY
ROOT SpineBase
{
  OFFSET 0.000000 0.000000 0.000000
  CHANNELS 6 Xposition Yposition Zposition Zrotation Xrotation Yrotation
  JOINT SpineMid
  {
    OFFSET -0.000000 32.243098 0.000000
    CHANNELS 3 Zrotation Xrotation Yrotation
    JOINT SpineShoulder
    {
      OFFSET -0.154404 23.830086 -0.898819
      CHANNELS 3 Zrotation Xrotation Yrotation
      JOINT Neck
      {
        OFFSET -0.117717 7.846062 -0.668354
        CHANNELS 3 Zrotation Xrotation Yrotation
        JOINT Head
        {
          OFFSET 0.876724 13.651054 -3.325057
          CHANNELS 3 Zrotation Xrotation Yrotation
          End Site
          {
            OFFSET 0 0 0
          }
        }
      }
      JOINT ShoulderLeft
      {
        OFFSET -19.002428 -1.340682 1.848567
        CHANNELS 3 Zrotation Xrotation Yrotation
        JOINT ElbowLeft
        {
          OFFSET -5.864227 -27.262342 0.836445
          CHANNELS 3 Zrotation Xrotation Yrotation
          JOINT WristLeft
          {
            OFFSET -0.645723 -23.638004 -4.680338
            CHANNELS 3 Zrotation Xrotation Yrotation
            JOINT HandLeft
            {
              OFFSET 1.545626 -7.442556 -2.783391
              CHANNELS 3 Zrotation Xrotation Yrotation
              JOINT HandTipLeft
              {
                OFFSET -0.119945 -8.873432 -1.473405
                CHANNELS 3 Zrotation Xrotation Yrotation
                End Site
                {
                  OFFSET 0 0 0
                }
              }
              JOINT ThumbLeft
              {
                OFFSET -3.641275 -2.219563 -4.619040
                CHANNELS 3 Zrotation Xrotation Yrotation
                End Site
                {
                  OFFSET 0 0 0
                }
              }
            }
          }
        }
      }
      JOINT ShoulderRight
      {
        OFFSET 19.623803 -3.115034 -1.391105
        CHANNELS 3 Zrotation Xrotation Yrotation
        JOINT ElbowRight
        {
          OFFSET 6.203997 -29.711250 4.513867
          CHANNELS 3 Zrotation Xrotation Yrotation
          JOINT WristRight
          {
            OFFSET -0.820726 -23.307361 -4.792098
            CHANNELS 3 Zrotation Xrotation Yrotation
            JOINT HandRight
            {
              OFFSET -0.329727 -8.016535 -0.878648
              CHANNELS 3 Zrotation Xrotation Yrotation
              JOINT HandTipRight
              {
                OFFSET -0.545385 -7.003584 0.423577
                CHANNELS 3 Zrotation Xrotation Yrotation
                End Site
                {
                  OFFSET 0 0 0
                }
              }
              JOINT ThumbRight
              {
                OFFSET 2.253117 1.811026 -0.655639
                CHANNELS 3 Zrotation Xrotation Yrotation
                End Site
                {
                  OFFSET 0 0 0
                }
              }
            }
          }
        }
      }
    }
  }
  JOINT HipLeft
  {
    OFFSET -8.665245 1.105137 -3.579107
    CHANNELS 3 Zrotation Xrotation Yrotation
    JOINT KneeLeft
    {
      OFFSET -2.437690 -38.497569 6.524558
      CHANNELS 3 Zrotation Xrotation Yrotation
      JOINT AnkleLeft
      {
        OFFSET 3.968435 -38.809849 9.863906
        CHANNELS 3 Zrotation Xrotation Yrotation
        JOINT FootLeft
        {
          OFFSET -1.391467 -4.297451 -14.818418
          CHANNELS 3 Zrotation Xrotation Yrotation
          End Site
          {
            OFFSET 0 0 0
          }
        }
      }
    }
  }
  JOINT HipRight
  {
    OFFSET 7.327943 0.500865 -4.382306
    CHANNELS 3 Zrotation Xrotation Yrotation
    JOINT KneeRight
    {
      OFFSET 2.641141 -37.638841 7.507721
      CHANNELS 3 Zrotation Xrotation Yrotation
      JOINT AnkleRight
      {
        OFFSET -0.746941 -39.633374 10.456029
        CHANNELS 3 Zrotation Xrotation Yrotation
        JOINT FootRight
        {
          OFFSET -1.129191 -6.874226 -9.865355
          CHANNELS 3 Zrotation Xrotation Yrotation
          End Site
          {
            OFFSET 0 0 0
          }
        }
      }
    }
  }
}
MOTION
Frames: 9
Frame Time: 0.033333
52.981987 86.648034 313.959489 0.000000 0.000000 2.875051 -0.000000 -0.000000 -2.875051 -0.000000 0.000000 0.000000 -0.000000 0.000000 0.000000 0.000000 0.000000 0.000000 -0.000000 0.000000 0.000000 -0.000000 0.000000 0.000000 -0.000000 0.000000 0.000000 -0.000000 0.000000 0.000000 0.000000 0.000000 0.000000 0.000000 0.000000 0.000000 -0.000000 0.000000 0.000000 -0.000000 0.000000 0.000000 -0.000000 0.000000 0.000000 -0.000000 0.000000 0.000000 0.000000 0.000000 0.000000 0.000000 0.000000 0.000000 -0.000000 -0.000000 -2.875051 -0.000000 0.000000 0.000000 -0.000000 0.000000 0.000000 0.000000 0.000000 0.000000 -0.000000 -0.000000 -2.875051 -0.000000 0.000000 0.000000 -0.000000 0.000000 0.000000 0.000000 0.000000 0.000000
52.990484 86.632380 313.851078 0.033459 -0.075223 2.932568 -0.029567 0.076836 -2.932526 -0.000000 0.000000 0.000000 -0.000000 0.000000 0.000000 0.000000 0.000000 0.000000 -0.000000 0.000000 0.000000 -0.000000 0.000000 0.000000 2.073987 -0.824855 -0.931080 -2.087315 0.790508 0.960412 0.000000 0.000000 0.000000 0.000000 0.000000 0.000000 -0.000000 0.000000 0.000000 -0.000000 0.000000 0.000000 -0.000000 0.000000 0.000000 1.907213 -0.747677 0.186196 0.000000 0.000000 0.000000 0.000000 0.000000 0.000000 -0.029567 0.076836 -2.932526 -0.000000 0.000000 0.000000 -0.000000 0.000000 0.000000 0.000000 0.000000 0.000000 -0.029567 0.076836 -2.932526 -0.000000 0.000000 0.000000 -0.724805 8.556219 -0.283005 0.000000 0.000000 0.000000
52.997718 86.618786 313.743833 0.058811 -0.142632 2.970623 -0.051340 0.145488 -2.970485 -0.000000 0.000000 0.000000 -0.000000 0.000000 0.000000 0.000000 0.000000 0.000000 -0.000000 0.000000 0.000000 0.634203 -0.895583 -0.096315 3.425646 -0.903612 -1.783988 -4.775893 0.816624 2.090357 0.000000 0.000000 0.000000 0.000000 0.000000 0.000000 -0.000000 0.000000 0.000000 -0.000000 0.000000 0.000000 -0.987461 -0.886102 0.137111 4.463729 -0.592094 0.163911 0.000000 0.000000 0.000000 0.000000 0.000000 0.000000 -0.051340 0.145488 -2.970485 -0.000000 0.000000 0.000000 -0.000000 0.000000 0.000000 0.000000 0.000000 0.000000 -0.051340 0.145488 -2.970485 -0.000000 0.000000 0.000000 -1.152984 13.565144 -0.381182 0.000000 0.000000 0.000000
53.003690 86.607254 313.637753 0.076069 -0.202248 2.989257 -0.065419 0.205939 -2.989005 -0.000000 0.000000 0.000000 -0.413417 1.005057 -0.161931 0.000000 0.000000 0.000000 -0.000000 0.000000 0.000000 0.813940 -1.373731 -0.114170 4.956514 -1.494564 -2.614049 -6.737099 1.476116 3.079672 0.000000 0.000000 0.000000 0.000000 0.000000 0.000000 -0.000000 0.000000 0.000000 -0.000000 0.000000 0.000000 -1.370637 -1.131423 0.183347 6.068453 -1.043226 0.239338 0.000000 0.000000 0.000000 0.000000 0.000000 0.000000 -0.065419 0.205939 -2.989005 -0.000000 0.000000 0.000000 -0.000000 0.000000 0.000000 0.000000 0.000000 0.000000 -0.065419 0.205939 -2.989005 -0.000000 0.000000 0.000000 -1.387518 16.056648 -0.388461 0.000000 0.000000 0.000000
53.008399 86.597782 313.532840 0.085249 -0.254088 2.988518 -0.071887 0.258187 -2.988167 -0.000000 0.000000 0.000000 -0.509817 1.317413 -0.203443 0.000000 0.000000 0.000000 -0.897045 0.320788 -0.093865 1.813035 -2.198901 -0.010592 6.115227 -2.057280 -3.296263 -8.170471 2.250766 3.901639 0.000000 0.000000 0.000000 0.000000 0.000000 0.000000 -0.000000 0.000000 0.000000 -0.000000 0.000000 0.000000 -1.667920 -1.231287 0.215671 7.235026 -1.604271 0.324237 0.000000 0.000000 0.000000 0.000000 0.000000 0.000000 -0.071887 0.258187 -2.988167 -0.000000 0.000000 0.000000 -0.000000 0.000000 0.000000 0.000000 0.000000 0.000000 -0.071887 0.258187 -2.988167 -0.000000 0.000000 0.000000 -1.471412 16.538525 -0.338715 0.000000 0.000000 0.000000
53.011845 86.590371 313.429091 0.086361 -0.298170 2.968465 -0.070805 0.302242 -2.968054 -0.000000 0.000000 0.000000 -0.585930 1.618690 -0.239151 0.000000 0.000000 0.000000 -1.073585 0.386154 -0.112171 2.011745 -2.807804 0.026793 6.776270 -2.481835 -3.774733 -8.940507 3.093542 4.464219 0.000000 0.000000 0.000000 0.000000 0.000000 0.000000 -0.000000 0.000000 0.000000 -0.000000 0.000000 0.000000 -1.872855 -1.180623 0.234662 7.957946 -2.276388 0.422678 0.000000 0.000000 0.000000 0.000000 0.000000 0.000000 -0.070805 0.302242 -2.968054 0.073044 -0.821104 -0.064752 -0.073979 0.821021 0.065805 0.000000 0.000000 0.000000 -0.070805 0.302242 -2.968054 -0.000000 0.000000 0.000000 -1.412433 15.103201 -0.235694 0.000000 0.000000 0.000000
52.975938 86.590621 313.336469 0.034439 -0.333601 2.955255 -0.017194 0.334933 -2.955105 -0.000000 0.000000 0.000000 -0.600370 1.876092 -0.257848 0.000000 0.000000 0.000000 -1.218071 0.495874 -0.138469 2.005424 -3.678364 0.110514 6.168547 -2.787557 -3.807383 -8.639062 4.312674 4.574990 0.000000 0.000000 0.000000 0.000000 0.000000 0.000000 -0.000000 0.000000 0.000000 -0.000000 0.000000 0.000000 -2.150754 -1.045496 0.259196 8.016792 -3.837202 0.580303 0.000000 0.000000 0.000000 0.000000 0.000000 0.000000 -0.017194 0.334933 -2.955105 0.087469 -0.990372 -0.078106 -0.088833 0.990250 0.079630 0.000000 0.000000 0.000000 -0.017194 0.334933 -2.955105 -0.000000 0.000000 0.000000 -0.676031 5.678323 0.065490 0.000000 0.000000 0.000000
52.987541 86.589005 313.229087 0.023470 -0.342009 2.864792 -0.006347 0.342755 -2.864703 -0.000000 0.000000 0.000000 -0.599970 2.116108 -0.272111 0.000000 0.000000 0.000000 -1.384891 0.606571 -0.165235 1.927022 -4.519493 0.206788 5.511223 -2.969495 -3.773607 -6.506661 6.458346 4.106208 0.000000 0.000000 0.000000 0.000000 0.000000 0.000000 -0.000000 0.000000 0.000000 -0.000000 0.000000 0.000000 -1.676432 -1.227749 0.216418 6.483303 -3.681809 0.523960 0.000000 0.000000 0.000000 0.000000 0.000000 0.000000 -0.006347 0.342755 -2.864703 0.125260 -1.145656 -0.083840 -0.126961 1.145469 0.086362 0.000000 0.000000 0.000000 -0.006347 0.342755 -2.864703 -0.000000 0.000000 0.000000 0.284619 -7.124831 0.858127 0.000000 0.000000 0.000000
53.001101 86.586525 313.119704 0.027555 -0.352098 2.729872 -0.010754 0.353011 -2.729755 -0.000000 0.000000 0.000000 -0.621929 2.468464 -0.298107 0.000000 0.000000 0.000000 -1.491873 0.636293 -0.173903 1.754470 -5.348946 0.285305 5.278244 -2.028316 -3.715816 -4.343865 6.032823 3.414676 0.000000 0.000000 0.000000 0.000000 0.000000 0.000000 -0.000000 0.000000 0.000000 -0.000000 0.000000 0.000000 -1.183001 -0.792778 0.154141 5.453504 -4.043437 0.585963 0.000000 0.000000 0.000000 0.000000 0.000000 0.000000 -0.010754 0.353011 -2.729755 0.178674 -1.259263 -0.081154 -0.180501 1.259003 0.085101 0.000000 0.000000 0.000000 -0.010754 0.353011 -2.729755 -0.000000 0.000000 0.000000 1.127659 -16.149804 1.525059 0.000000 0.000000 0.000000
